<?xml version="1.0" encoding="UTF-8" standalone="no"?>
<svg
   width="2938.8625"
   height="720"
   viewBox="0 0 226.5935 55.513728"
   version="1.1"
   id="svg22"
   sodipodi:docname="jose-cuervo-2.svg"
   inkscape:version="1.1 (c68e22c387, 2021-05-23)"
   xmlns:inkscape="http://www.inkscape.org/namespaces/inkscape"
   xmlns:sodipodi="http://sodipodi.sourceforge.net/DTD/sodipodi-0.dtd"
   xmlns="http://www.w3.org/2000/svg"
   xmlns:svg="http://www.w3.org/2000/svg">
  <defs
     id="defs26" />
  <sodipodi:namedview
     id="namedview24"
     pagecolor="#ffffff"
     bordercolor="#666666"
     borderopacity="1.0"
     inkscape:pageshadow="2"
     inkscape:pageopacity="0.0"
     inkscape:pagecheckerboard="0"
     showgrid="false"
     fit-margin-top="0"
     fit-margin-left="0"
     fit-margin-right="0"
     fit-margin-bottom="0"
     inkscape:zoom="0.24267905"
     inkscape:cx="1534.9492"
     inkscape:cy="10.301672"
     inkscape:window-width="1920"
     inkscape:window-height="1017"
     inkscape:window-x="1912"
     inkscape:window-y="-8"
     inkscape:window-maximized="1"
     inkscape:current-layer="svg22" />
  <g
     fill-rule="evenodd"
     clip-rule="evenodd"
     id="g20"
     transform="translate(-480.29966,-98.292633)">
    <path
       fill="#ffffff"
       d="M 0,0 H 192.756 V 192.756 H 0 Z"
       id="path2" />
    <path
       d="m 8.504,96.205 c 0,3.232 1.27,6.234 3.695,8.545 2.31,2.309 5.428,3.58 8.776,3.58 0.693,0 1.386,-0.115 2.078,-0.232 2.079,2.195 5.427,6.006 8.199,12.24 0.577,1.387 1.732,2.311 3.349,2.311 h 123.671 c 1.615,0 2.771,-0.924 3.348,-2.311 2.771,-6.234 6.121,-10.045 8.084,-12.123 0.693,0.115 1.5,0.115 2.193,0.115 3.35,0 6.467,-1.271 8.775,-3.58 2.311,-2.311 3.58,-5.312 3.58,-8.545 0,-3.349 -1.27,-6.351 -3.58,-8.661 -2.309,-2.31 -5.426,-3.58 -8.775,-3.58 -0.924,0 -1.848,0.116 -2.771,0.231 -2.193,-2.194 -5.428,-6.004 -7.506,-11.778 -0.576,-1.501 -1.732,-2.309 -3.232,-2.309 H 34.487 c -1.501,0 -2.771,0.808 -3.233,2.309 -2.194,5.774 -5.427,9.584 -7.506,11.894 a 11.432,11.432 0 0 0 -2.771,-0.346 c -3.349,0 -6.466,1.27 -8.776,3.58 -2.427,2.309 -3.697,5.427 -3.697,8.66 z"
       fill="#bfaf71"
       id="path4" />
    <path
       d="m 177.094,104.404 c -2.656,1.73 -5.891,1.963 -8.662,1.039 -1.73,1.73 -5.773,5.889 -9.006,12.932 -0.23,0.578 -0.924,1.502 -2.193,1.617 H 35.524 c -1.039,0 -1.848,-0.578 -2.309,-1.617 -3.118,-6.928 -7.159,-11.084 -9.007,-12.932 -5.196,1.73 -10.739,-1.039 -12.471,-6.121 -1.732,-5.081 1.039,-10.739 6.12,-12.471 2.31,-0.693 4.734,-0.577 6.813,0.231 2.079,-2.079 6.004,-6.12 8.661,-12.817 0.462,-1.039 1.155,-1.616 2.194,-1.616 h 121.593 c 1.385,0.115 2.078,1.039 2.193,1.616 2.656,6.697 6.582,10.854 8.66,12.817 4.271,-1.732 9.354,-0.231 11.893,3.695 3.003,4.504 1.732,10.623 -2.77,13.627 z"
       fill="#bfaf71"
       id="path6" />
    <path
       d="m 179.863,90.778 c -2.539,-3.926 -7.621,-5.427 -11.893,-3.695 -2.078,-1.963 -6.004,-6.12 -8.66,-12.817 -0.115,-0.577 -0.809,-1.501 -2.193,-1.616 H 35.524 c -1.039,0 -1.732,0.577 -2.194,1.616 -2.656,6.697 -6.582,10.739 -8.661,12.817 -2.079,-0.808 -4.503,-0.924 -6.813,-0.231 -5.081,1.732 -7.852,7.39 -6.12,12.471 1.732,5.082 7.275,7.852 12.471,6.121 1.848,1.848 5.889,6.004 9.007,12.932 0.461,1.039 1.27,1.617 2.309,1.617 h 121.708 c 1.27,-0.115 1.963,-1.039 2.193,-1.617 3.232,-7.043 7.275,-11.201 9.006,-12.932 2.771,0.924 6.006,0.691 8.662,-1.039 4.504,-3.005 5.775,-9.124 2.771,-13.627 z m -22.054,26.906 v 0.115 c 0,0.115 -0.23,0.461 -0.691,0.461 H 35.525 c -0.115,0 -0.462,0 -0.693,-0.576 -3.118,-6.697 -6.928,-10.971 -8.892,-12.934 3.926,-2.311 5.889,-7.16 4.388,-11.663 -0.693,-2.309 -2.194,-4.042 -4.042,-5.196 2.194,-2.194 6.005,-6.467 8.66,-12.933 0.116,-0.461 0.347,-0.577 0.578,-0.577 H 157 c 0.578,0.116 0.693,0.462 0.693,0.462 v 0.115 h 0.115 c 2.541,6.466 6.352,10.739 8.545,12.933 v 0.115 c -4.504,3.002 -5.773,9.007 -2.771,13.509 a 8.352,8.352 0 0 0 3.234,3.119 c -1.962,2.079 -5.773,6.235 -9.007,13.05 z"
       fill="#cc2131"
       id="path8" />
    <path
       d="m 163.582,101.516 c -3.002,-4.502 -1.732,-10.507 2.771,-13.509 v -0.115 c -2.193,-2.194 -6.004,-6.467 -8.545,-12.933 h -0.115 v -0.115 c 0,0 -0.115,-0.346 -0.693,-0.462 H 35.524 c -0.231,0 -0.462,0.116 -0.578,0.577 -2.655,6.466 -6.466,10.739 -8.66,12.933 1.848,1.154 3.349,2.887 4.042,5.196 1.501,4.503 -0.462,9.353 -4.388,11.663 1.963,1.963 5.774,6.236 8.892,12.934 0.231,0.576 0.578,0.576 0.693,0.576 h 121.593 c 0.461,0 0.691,-0.346 0.691,-0.461 v -0.115 c 3.234,-6.814 7.045,-10.971 9.008,-13.049 a 8.372,8.372 0 0 1 -3.235,-3.12 z"
       id="path10" />
    <path
       d="m 20.282,94.819 c 0,0 -2.771,-2.079 -3.233,-2.656 -0.578,-0.577 -0.462,-1.732 0.461,-2.194 0.808,-0.462 1.848,0 2.079,0.693 0.231,0.693 0.693,4.157 0.693,4.157 z m -0.808,1.386 c 0,0 -3.233,1.27 -3.926,1.502 -0.693,0.115 -1.732,-0.463 -1.732,-1.502 0,-1.04 0.923,-1.732 1.732,-1.501 0.693,0.115 3.926,1.501 3.926,1.501 z m 0.808,1.27 c 0,0 -0.462,3.465 -0.693,4.158 -0.231,0.691 -1.271,1.27 -2.194,0.691 -0.809,-0.461 -0.924,-1.615 -0.462,-2.193 0.578,-0.578 3.349,-2.656 3.349,-2.656 z m 1.501,0 c 0,0 2.771,2.195 3.233,2.656 0.578,0.578 0.462,1.732 -0.461,2.193 a 1.35,1.35 0 0 1 -2.079,-0.691 c -0.231,-0.694 -0.693,-4.158 -0.693,-4.158 z m 0.808,-1.27 c 0,0 3.118,-1.386 3.926,-1.501 0.693,-0.23 1.732,0.462 1.732,1.501 0,1.039 -1.039,1.617 -1.732,1.502 -0.692,-0.117 -3.926,-1.502 -3.926,-1.502 z m -0.808,-1.386 c 0,0 0.462,-3.349 0.693,-4.157 0.231,-0.693 1.27,-1.271 2.194,-0.693 0.809,0.462 0.924,1.617 0.346,2.194 -0.461,0.578 -3.233,2.656 -3.233,2.656 z m 149.19,0 c 0,0 -2.771,-2.079 -3.232,-2.656 -0.578,-0.577 -0.463,-1.732 0.461,-2.194 0.809,-0.462 1.848,0 2.078,0.693 0.232,0.693 0.693,4.157 0.693,4.157 z m -0.694,1.386 c 0,0 -3.232,1.27 -4.041,1.502 -0.693,0.115 -1.617,-0.463 -1.617,-1.502 0,-1.04 0.924,-1.732 1.617,-1.501 0.809,0.115 4.041,1.501 4.041,1.501 z m 0.694,1.27 c 0,0 -0.461,3.465 -0.693,4.158 -0.23,0.691 -1.27,1.27 -2.078,0.691 -0.924,-0.461 -1.039,-1.615 -0.461,-2.193 0.46,-0.578 3.232,-2.656 3.232,-2.656 z m 1.502,0 c 0,0 2.771,2.195 3.232,2.656 0.578,0.578 0.578,1.732 -0.346,2.193 -0.924,0.578 -1.963,0.115 -2.195,-0.691 -0.23,-0.694 -0.691,-4.158 -0.691,-4.158 z m 0.808,-1.27 c 0,0 3.232,-1.386 3.926,-1.501 0.691,-0.23 1.73,0.462 1.73,1.501 0,1.039 -0.922,1.617 -1.73,1.502 -0.693,-0.117 -3.926,-1.502 -3.926,-1.502 z m -0.808,-1.386 c 0,0 0.461,-3.349 0.691,-4.157 0.232,-0.693 1.271,-1.271 2.195,-0.693 0.809,0.462 0.924,1.617 0.461,2.194 -0.461,0.578 -3.347,2.656 -3.347,2.656 z"
       fill="#bfaf71"
       id="path12" />
    <path
       d="m 156.77,88.815 c 0.463,0 0.924,-0.231 1.271,-0.578 0.346,-0.346 0.461,-0.808 0.461,-1.27 0,-0.462 -0.115,-0.924 -0.461,-1.271 -0.348,-0.346 -0.809,-0.462 -1.271,-0.462 -0.924,0 -1.732,0.809 -1.732,1.732 0,0.462 0.117,0.924 0.463,1.27 0.346,0.346 0.808,0.579 1.269,0.579 z m -1.5,-1.848 c 0,-0.347 0.115,-0.809 0.461,-1.04 0.23,-0.346 0.693,-0.461 1.039,-0.461 0.463,0 0.809,0.115 1.039,0.461 0.348,0.231 0.463,0.693 0.463,1.04 0,0.924 -0.693,1.616 -1.502,1.616 -0.346,0 -0.809,-0.23 -1.039,-0.462 -0.346,-0.346 -0.461,-0.692 -0.461,-1.154 z"
       fill="#ffffff"
       id="path14" />
    <path
       d="m 156.424,87.083 v 0.809 h -0.23 v -1.848 h 0.691 c 0.232,0 0.578,0.115 0.578,0.462 0,0.231 -0.115,0.346 -0.346,0.462 0.23,0 0.23,0.115 0.346,0.346 0,0.231 0,0.462 0.115,0.578 h -0.346 v -0.347 c -0.115,-0.115 -0.115,-0.346 -0.115,-0.346 -0.117,-0.116 -0.232,-0.116 -0.348,-0.116 z m 0,-0.231 h 0.461 c 0.232,0 0.348,-0.115 0.348,-0.346 0,-0.115 -0.115,-0.231 -0.348,-0.231 h -0.461 z M 101.92,90.2 c 0,-0.115 1.156,1.155 1.156,1.155 v 10.161 c 0,0.693 2.193,2.541 2.887,2.656 0.461,-0.461 1.963,-1.615 3.463,-2.656 1.039,1.502 2.541,2.195 3.695,2.656 l 0.348,-0.461 c 0,0 -1.156,-2.195 -1.156,-2.887 v -10.97 c 0,-0.115 -1.154,-1.386 -1.73,-1.617 l -2.311,1.848 c 0,0 1.154,0.924 1.154,1.155 v 9.584 c 0,0 -1.039,0.691 -1.615,0.924 -0.348,0.115 -1.732,-1.154 -1.732,-1.617 V 90.085 c 0,-0.231 -1.387,-1.501 -1.963,-1.732 z M 66.817,89.854 c 0.693,0.231 1.963,1.616 2.887,1.616 0.231,0 0.578,-0.115 1.039,-0.346 a 12.14,12.14 0 0 0 1.732,-1.732 l -0.346,-0.347 c 0,0 -0.808,0.693 -1.155,0.462 -0.692,-0.462 -1.616,-1.27 -2.078,-1.848 -0.924,0.347 -2.425,1.271 -3.464,2.194 -0.462,0.346 -1.27,0.924 -1.732,1.501 -0.808,6.235 6.12,5.311 6.236,9.7 0,0.346 0,0.924 -0.231,1.154 -0.462,0.115 -0.808,0 -1.27,-0.23 -0.578,-0.346 -1.386,-0.809 -2.31,-1.039 -0.578,-0.115 -1.386,0.115 -1.963,0.461 -0.809,0.693 -1.732,1.963 -1.732,1.963 l 0.462,0.232 c 0.462,-0.578 1.039,-1.039 1.386,-1.039 0.924,0.23 2.079,1.154 2.887,1.848 0.347,0 2.425,-1.156 3.926,-2.656 0.462,-0.578 1.155,-1.502 1.155,-1.848 0.346,-6.005 -6.12,-4.619 -6.12,-9.469 -0.001,-0.346 0.229,-0.692 0.691,-0.577 z M 59.889,88.93 c -0.578,-0.347 -0.578,-0.924 -0.462,-1.617 -1.732,1.04 -4.965,3.58 -5.543,4.042 -0.462,0.347 -1.039,0.809 -1.039,1.155 -0.116,2.079 -0.116,6.928 0,9.238 0.115,0.691 3.002,2.656 3.811,2.656 0.115,0.115 2.656,-1.502 2.656,-1.502 1.04,-0.578 2.31,-1.502 2.425,-1.848 0.346,-2.309 0.231,-9.353 0.116,-10.624 -0.117,-0.23 -1.271,-1.154 -1.964,-1.5 z m -1.039,13.049 c 0,0.23 0,0.346 -0.116,0.461 -0.577,-0.115 -1.27,-0.576 -2.078,-1.154 -0.462,-0.346 -0.924,-0.691 -0.924,-0.924 0,-1.5 0,-6.928 0.115,-9.122 0,-0.347 0.116,-0.693 0.231,-0.924 0.692,0.23 1.963,0.693 2.54,1.271 0.115,0.115 0.231,0.346 0.231,0.346 0.232,2.424 0.232,7.737 0.001,10.046 z m 94.109,-13.164 c -0.576,-0.231 -0.576,-0.924 -0.461,-1.617 -1.732,1.039 -4.734,3.348 -5.428,4.042 -0.463,0.347 -1.154,0.808 -1.154,1.27 -0.115,2.079 -0.115,6.812 0,9.123 0.115,0.691 3.002,2.654 3.811,2.771 0.115,0 2.656,-1.502 2.656,-1.502 1.039,-0.693 2.309,-1.617 2.424,-1.963 0.348,-2.311 0.23,-9.353 0.115,-10.508 -0.115,-0.346 -1.27,-1.155 -1.963,-1.616 z m -1.039,13.164 v 0.346 c -0.693,-0.115 -1.385,-0.576 -2.193,-1.039 -0.463,-0.346 -0.924,-0.809 -0.924,-0.924 0,-1.615 0,-6.928 0.115,-9.122 0,-0.347 0.115,-0.693 0.115,-1.04 0.809,0.231 2.078,0.693 2.656,1.27 0.23,0.231 0.23,0.462 0.23,0.462 0.231,2.31 0.347,7.621 10e-4,10.047 z M 47.996,84.427 c -1.155,1.386 -0.924,4.965 -0.924,7.737 -0.116,2.54 0,6.813 0,9.122 -0.116,5.082 -1.848,7.275 -3.003,7.275 -2.54,0 -3.81,-2.311 -4.503,-4.041 -0.809,-1.963 -1.501,-3.58 -2.656,-4.043 -0.461,-0.115 -1.154,-0.115 -1.616,0.348 -0.462,0.346 -1.155,1.27 -1.155,1.27 1.386,0.115 2.194,2.078 2.887,3.695 0.923,2.541 2.887,4.619 4.85,4.619 2.771,-0.115 6.466,-3.695 7.852,-6.352 1.155,-2.309 0.808,-10.392 0.808,-14.549 -0.115,-4.734 0.231,-6.582 1.617,-7.852 L 52.037,81.54 c -1.501,0.462 -3.233,1.847 -4.041,2.887 z"
       fill="#ffffff"
       id="path16" />
    <path
       d="m 43.376,106.482 c 1.27,-1.271 1.848,-3.002 1.848,-4.85 V 88.814 c 0,-1.963 0.462,-3.002 1.386,-4.272 v -0.116 c -1.617,1.27 -2.887,2.771 -2.887,5.542 v 12.818 a 9.005,9.005 0 0 1 -0.461,3.695 h 0.114 z m 6.005,-25.058 c -0.577,0.231 -1.27,0.347 -2.309,0.347 -1.271,-0.115 -4.042,-1.271 -5.889,-0.924 -2.425,0.692 -4.157,2.656 -4.157,3.695 0,1.039 1.154,1.385 1.154,1.385 l 0.347,-0.346 c 0,0 -0.809,-1.732 0,-2.541 1.039,-0.924 3.464,0 4.619,0.346 0.693,0.231 1.963,0.347 2.771,0.116 1.617,-0.462 3.58,-1.964 3.58,-1.964 z m 43.533,23.326 c 1.501,-1.502 2.425,-3.002 2.425,-5.658 v -9.815 c 0,-3.81 0.693,-4.85 1.617,-5.889 v 24.019 c -4.619,-1.732 -6.12,-6.697 -6.12,-12.356 0,-6.005 1.154,-10.508 6.12,-13.741 L 96.84,81.079 c -2.771,1.155 -6.12,3.926 -7.505,5.773 -1.386,1.963 -2.194,5.542 -2.194,9.814 0,6.814 3.349,13.627 11.202,13.627 5.426,0 8.312,-4.389 8.312,-4.389 l -0.23,-0.23 c -1.27,1.27 -3.002,2.309 -6.119,2.309 -1.039,0 -2.078,-0.115 -2.771,-0.346 v -24.48 c 0.461,-0.116 0.924,0 1.385,0.115 1.387,0.347 1.732,0.693 3.234,0.693 0.924,0 2.078,-0.578 2.654,-1.039 0.693,-0.578 1.502,-1.27 1.502,-1.27 l -0.115,-0.231 c 0,0 -0.809,0.462 -1.732,0.462 -1.502,0 -3.926,-1.732 -5.428,-0.578 l -2.078,1.732 c -2.425,1.848 -3.233,4.042 -3.233,6.698 0.115,3.118 0,9.238 0,10.392 0.115,1.502 0.115,3.232 -0.924,4.273 z M 82.521,91.702 c 0.115,0 -2.31,-2.887 -3.233,-3.811 0,0 -1.385,0.692 -2.541,1.616 -1.731,1.386 -2.887,2.194 -2.887,2.425 v 9.583 c 0.115,0.693 3.002,2.656 4.734,3.004 0.116,0 2.079,-1.387 1.963,-1.271 0.116,-0.115 0.347,-0.346 0.462,-0.346 a 21.775,21.775 0 0 1 1.271,-1.154 l -0.347,-0.463 c -0.808,0.693 -1.616,1.154 -2.078,1.039 -1.271,-0.576 -3.118,-1.73 -3.118,-1.963 v -3.002 c 1.156,-1.039 5.313,-4.618 5.774,-5.657 z m -5.196,-1.386 c 0.231,0 2.541,2.771 2.541,2.887 0,0.347 -1.963,2.194 -3.118,3.348 v -4.964 c 0,-1.271 0.115,-1.271 0.577,-1.271 z m 46.304,1.27 c 0,-0.116 -2.309,-3.003 -3.348,-3.927 0,0 -1.387,0.809 -2.426,1.617 -1.848,1.501 -3.002,2.194 -3.002,2.425 v 9.699 c 0.115,0.693 3.117,2.541 4.734,2.887 0.115,0 2.193,-1.385 1.963,-1.27 0.23,-0.115 0.346,-0.23 0.463,-0.346 l 1.385,-1.156 -0.346,-0.461 c -0.809,0.693 -1.617,1.27 -2.195,1.039 -1.154,-0.578 -3.002,-1.617 -3.002,-1.963 v -3.002 c 1.155,-1.038 5.313,-4.618 5.774,-5.542 z m -5.311,-1.501 c 0.346,0 2.654,2.887 2.654,3.002 0,0.347 -2.078,2.079 -3.117,3.233 v -4.965 c 0,-1.27 0.116,-1.27 0.463,-1.27 z m 12.702,-2.31 c -1.039,1.27 -1.963,2.194 -2.541,3.002 -0.115,-0.462 -1.27,-1.963 -2.078,-2.656 l -2.193,1.963 c 0,0 1.27,1.27 1.27,1.617 v 10.392 c 0,0.463 1.617,1.963 2.311,2.193 l 2.193,-1.615 c 0,0 -1.502,-1.271 -1.502,-1.502 v -9.468 c 0,0 0.578,-0.693 1.039,-1.039 0.463,0.115 1.965,2.309 1.965,2.309 0,0 1.963,-2.194 1.615,-2.771 -0.347,-0.577 -1.386,-1.617 -2.079,-2.425 z m 12.816,3.003 c -0.23,-2.425 -1.615,-2.887 -1.615,-4.503 0,-0.462 0.115,-0.924 0.461,-1.732 l -0.115,-0.231 c -1.5,0.924 -2.539,2.079 -2.539,3.233 -0.117,1.386 0.691,1.963 0.807,3.002 0.232,2.425 0.348,7.161 -0.115,10.393 0,0.576 -0.115,1.039 -0.23,1.385 a 21.262,21.262 0 0 0 -2.078,-1.385 c -0.115,-0.115 -0.346,-0.23 -0.693,-0.346 v -10.74 c -0.115,-0.231 -1.617,-1.732 -1.732,-1.732 l -2.193,1.732 1.039,1.155 c 0,2.078 0.115,8.198 -0.115,9.585 0,0.576 -0.346,1.039 -0.693,1.5 v 0.115 c 0.693,0 1.502,0.348 2.541,0.924 1.848,1.154 1.963,1.387 2.078,1.387 l 1.963,-1.502 c 1.039,-0.693 2.887,-2.309 3.002,-2.424 0.344,-2.541 0.344,-7.622 0.227,-9.816 z"
       fill="#ffffff"
       id="path18" />
  </g>
  <path
     d="m 229.13428,11.806107 v 1.51589 h -0.43097 V 9.8592568 h 1.29478 c 0.43471,0 1.08304,0.2154902 1.08304,0.8656902 0,0.43284 -0.21549,0.64832 -0.64833,0.86568 0.43097,0 0.43097,0.21548 0.64833,0.64832 0,0.43285 0,0.86569 0.21548,1.08305 h -0.64833 v -0.6502 c -0.21548,-0.21549 -0.21548,-0.64833 -0.21548,-0.64833 -0.21923,-0.21736 -0.43471,-0.21736 -0.65207,-0.21736 z m 0,-0.43284 h 0.86381 c 0.43471,0 0.65207,-0.21548 0.65207,-0.64832 0,-0.21549 -0.21549,-0.43285 -0.65207,-0.43285 h -0.86381 z m -102.1281,6.27339 c 0,-0.21548 2.16608,2.16421 2.16608,2.16421 v 19.0394 c 0,1.29853 4.10918,4.76126 5.40958,4.97674 0.86381,-0.86381 3.67822,-3.02614 6.48887,-4.97674 1.94685,2.81441 4.76126,4.11293 6.92359,4.97674 l 0.65208,-0.86381 c 0,0 -2.16608,-4.11293 -2.16608,-5.40958 v -20.55528 c 0,-0.21549 -2.16234,-2.59705 -3.24163,-3.02989 l -4.33029,3.46273 c 0,0 2.16233,1.73136 2.16233,2.16421 v 17.95823 c 0,0 -1.94685,1.29478 -3.02614,1.73137 -0.65207,0.21548 -3.24537,-2.16234 -3.24537,-3.02989 v -18.82392 c 0,-0.43284 -2.59893,-2.81253 -3.67822,-3.24538 z m -65.77504,-0.64832 c 1.29852,0.43284 3.67821,3.02801 5.40958,3.02801 0.43284,0 1.08304,-0.21548 1.94685,-0.64832 a 22.747599,22.747599 0 0 0 3.24537,-3.24538 l -0.64832,-0.6502 c 0,0 -1.51401,1.29853 -2.16421,0.86569 -1.29665,-0.86569 -3.02801,-2.37969 -3.8937,-3.46273 -1.73136,0.6502 -4.5439,2.38156 -6.49075,4.11105 -0.86568,0.64833 -2.37969,1.73137 -3.24537,2.81254 -1.51401,11.68297 11.46749,9.9516 11.68485,18.17559 0,0.64832 0,1.73137 -0.43285,2.16233 -0.86568,0.21549 -1.514,0 -2.37969,-0.43096 -1.08304,-0.64833 -2.59705,-1.51589 -4.32841,-1.94685 -1.08304,-0.21549 -2.59705,0.21548 -3.67822,0.8638 -1.51588,1.29853 -3.24537,3.67822 -3.24537,3.67822 l 0.86568,0.43472 c 0.86568,-1.08305 1.94685,-1.94685 2.59705,-1.94685 1.73137,0.43096 3.89557,2.16233 5.40958,3.46273 0.6502,0 4.5439,-2.16608 7.35643,-4.97674 0.86569,-1.08304 2.16421,-2.81441 2.16421,-3.46273 0.64833,-11.25201 -11.46749,-8.65496 -11.46749,-17.74276 -0.002,-0.64832 0.4291,-1.29665 1.29478,-1.08116 z m -12.9815,-1.73137 c -1.08304,-0.6502 -1.08304,-1.73136 -0.86568,-3.02989 -3.24537,1.94872 -9.30328,6.70811 -10.38632,7.57379 -0.86568,0.6502 -1.94685,1.51588 -1.94685,2.16421 -0.21736,3.89557 -0.21736,12.98149 0,17.30991 0.21548,1.29477 5.62506,4.97674 7.14095,4.97674 0.21548,0.21548 4.97674,-2.81441 4.97674,-2.81441 1.94872,-1.08304 4.32841,-2.81441 4.54389,-3.46273 0.64833,-4.32654 0.43285,-17.5254 0.21736,-19.90696 -0.21923,-0.43097 -2.38156,-2.16233 -3.68009,-2.81066 z m -1.94685,24.45086 c 0,0.43097 0,0.64832 -0.21735,0.86381 -1.08117,-0.21549 -2.3797,-1.07929 -3.8937,-2.16234 -0.86569,-0.64832 -1.73137,-1.29477 -1.73137,-1.73136 0,-2.81066 0,-12.9815 0.21548,-17.09255 0,-0.6502 0.21736,-1.29853 0.43285,-1.73137 1.29665,0.43097 3.67821,1.29852 4.75938,2.38156 0.21548,0.21549 0.43284,0.64833 0.43284,0.64833 0.43471,4.54202 0.43471,14.49738 0.002,18.82392 z m 176.33886,-24.66634 c -1.07929,-0.43284 -1.07929,-1.73137 -0.8638,-3.02989 -3.24538,1.94685 -8.87044,6.27339 -10.17084,7.57379 -0.86756,0.65019 -2.16234,1.514 -2.16234,2.37969 -0.21548,3.89557 -0.21548,12.76414 0,17.09442 0.21549,1.29478 5.62507,4.973 7.14095,5.19223 0.21549,0 4.97674,-2.81441 4.97674,-2.81441 1.94685,-1.29852 4.32654,-3.02989 4.54203,-3.67821 0.65207,-4.33029 0.43096,-17.5254 0.21548,-19.68961 -0.21548,-0.64832 -2.37969,-2.1642 -3.67822,-3.02801 z m -1.94685,24.66634 v 0.64832 c -1.29852,-0.21548 -2.59517,-1.07929 -4.10918,-1.94685 -0.86756,-0.64832 -1.73136,-1.51588 -1.73136,-1.73136 0,-3.02614 0,-12.9815 0.21548,-17.09255 0,-0.6502 0.21548,-1.29853 0.21548,-1.94873 1.51589,0.43284 3.8937,1.29853 4.97674,2.37969 0.43097,0.43284 0.43097,0.86569 0.43097,0.86569 0.43284,4.32841 0.6502,14.28002 0.002,18.82579 z M 25.96487,6.8293668 c -2.16421,2.59705 -1.73137,9.3032802 -1.73137,14.4973802 -0.21736,4.75938 0,12.76601 0,17.09255 -0.21736,9.52252 -3.46273,13.6317 -5.62694,13.6317 -4.75938,0 -7.13907,-4.33029 -8.4376,-7.57191 -1.51588,-3.67822 -2.81253,-6.70811 -4.97674,-7.57567 -0.86381,-0.21548 -2.16233,-0.21548 -3.02801,0.65208 C 1.29852,38.203817 0,39.935187 0,39.935187 c 2.59705,0.21548 4.11106,3.8937 5.40958,6.92359 1.72949,4.76125 5.40958,8.65495 9.0878,8.65495 5.19222,-0.21548 12.11581,-6.92359 14.71286,-11.9022 2.16421,-4.32654 1.51401,-19.47225 1.51401,-27.26152 C 30.50876,7.4795668 31.15709,4.0168368 33.75414,1.6371478 l -0.21736,-0.217357 c -2.81253,0.865686 -6.05791,3.460856 -7.57191,5.409576 z"
     fill="#ffffff"
     id="path16-5"
     style="fill:#000000;stroke-width:1.87377" />
  <path
     d="m 17.30804,48.155427 c 2.37969,-2.38157 3.46273,-5.62507 3.46273,-9.0878 v -24.01802 c 0,-3.67821 0.86568,-5.6250602 2.59705,-8.0047502 v -0.21736 c -3.02989,2.37969 -5.40958,5.1922202 -5.40958,10.3844502 v 24.01801 a 16.873322,16.873322 0 0 1 -0.86381,6.92359 h 0.21361 z M 28.56004,1.2024328 C 27.47887,1.6352748 26.18035,1.8526368 24.2335,1.8526368 21.85194,1.6371478 16.65971,-0.52893323 13.19885,0.12126577 8.65496,1.4179168 5.40958,5.0980068 5.40958,7.0448568 c 0,1.94685 2.16233,2.59517 2.16233,2.59517 l 0.6502,-0.64832 c 0,0 -1.51588,-3.24538 0,-4.76126 1.94685,-1.73136 6.49075,0 8.65496,0.64833 1.29852,0.43284 3.67821,0.6502 5.19222,0.21735 3.02989,-0.86568 6.70811,-3.680084 6.70811,-3.680084 z m 81.57094,43.7076142 c 2.81253,-2.8144 4.5439,-5.62506 4.5439,-10.6018 v -18.39108 c 0,-7.1390702 1.29852,-9.0878002 3.02989,-11.0346502 V 49.888667 c -8.65496,-3.24538 -11.46749,-12.54866 -11.46749,-23.15234 0,-11.252 2.16234,-19.6896002 11.46749,-25.74750423 l -0.21736,-0.432841 C 112.29519,2.7201868 106.01992,7.9124068 103.42475,11.373267 c -2.59705,3.67822 -4.11106,10.38445 -4.11106,18.38921 0,12.76788 6.27527,25.53389 20.99,25.53389 10.16709,0 15.5748,-8.22398 15.5748,-8.22398 l -0.43097,-0.43097 c -2.37969,2.37969 -5.62506,4.32654 -11.46561,4.32654 -1.94685,0 -3.8937,-0.21548 -5.19223,-0.64833 V 4.4496768 c 0.86381,-0.21736 1.73137,0 2.59518,0.21549 2.59892,0.65019 3.24537,1.29852 6.05978,1.29852 1.73137,0 3.8937,-1.08304 4.97299,-1.94685 1.29853,-1.08304 2.81441,-2.379689 2.81441,-2.379689 l -0.21549,-0.432841 c 0,0 -1.51588,0.86568 -3.24537,0.86568 -2.81441,0 -7.35643,-3.245371 -10.17084,-1.08303803 l -3.8937,3.24536803 c -4.54389,3.46274 -6.0579,7.5737902 -6.0579,12.5505302 0.21548,5.84243 0,17.30991 0,19.47225 0.21548,2.8144 0.21548,6.05603 -1.73137,8.00663 z M 90.65686,20.461067 c 0.21549,0 -4.32841,-5.40958 -6.0579,-7.14095 0,0 -2.59518,1.29665 -4.76126,3.02802 -3.2435,2.59705 -5.40958,4.11105 -5.40958,4.5439 v 17.95636 c 0.21548,1.29852 5.62506,4.97674 8.87044,5.62881 0.21736,0 3.89557,-2.59892 3.67821,-2.38156 0.21736,-0.21549 0.6502,-0.64833 0.86569,-0.64833 a 40.801397,40.801397 0 0 1 2.38156,-2.16233 l -0.6502,-0.86756 c -1.51401,1.29853 -3.02801,2.16233 -3.8937,1.94685 -2.38156,-1.07929 -5.84242,-3.24163 -5.84242,-3.67822 v -5.62506 c 2.16608,-1.94685 9.95535,-8.65308 10.81916,-10.59993 z m -9.73612,-2.59705 c 0.43284,0 4.76126,5.19222 4.76126,5.40958 0,0.6502 -3.67822,4.11106 -5.84243,6.27339 v -9.30141 c 0,-2.38156 0.21549,-2.38156 1.08117,-2.38156 z m 86.76317,2.37969 c 0,-0.21736 -4.32655,-5.62694 -6.2734,-7.3583 0,0 -2.59892,1.51588 -4.54577,3.02989 -3.46273,2.81253 -5.62506,4.11105 -5.62506,4.54389 v 18.17372 c 0.21548,1.29853 5.84055,4.76126 8.87044,5.40959 0.21548,0 4.10918,-2.59518 3.67821,-2.3797 0.43097,-0.21548 0.64833,-0.43096 0.86756,-0.64832 l 2.59517,-2.16608 -0.64832,-0.86381 c -1.51588,1.29852 -3.02989,2.37969 -4.11293,1.94685 -2.16234,-1.08304 -5.62507,-3.02989 -5.62507,-3.67822 v -5.62506 c 2.16421,-1.94498 9.95536,-8.65308 10.81917,-10.38445 z m -9.95161,-2.81253 c 0.64832,0 4.97299,5.40958 4.97299,5.62506 0,0.6502 -3.8937,3.89558 -5.84055,6.05791 v -9.30328 c 0,-2.37969 0.21736,-2.37969 0.86756,-2.37969 z m 23.80066,-4.32842 c -1.94685,2.37969 -3.67822,4.11106 -4.76126,5.62507 -0.21548,-0.86568 -2.37969,-3.67822 -3.8937,-4.97674 l -4.10918,3.67821 c 0,0 2.37969,2.3797 2.37969,3.02989 v 19.47225 c 0,0.86756 3.02989,3.67821 4.33029,4.10918 l 4.10918,-3.02614 c 0,0 -2.8144,-2.38157 -2.8144,-2.81441 v -17.74088 c 0,0 1.08304,-1.29852 1.94685,-1.94684 0.86755,0.21548 3.68196,4.32654 3.68196,4.32654 0,0 3.67821,-4.11106 3.02614,-5.19223 -0.6502,-1.08116 -2.59705,-3.02989 -3.89557,-4.5439 z m 24.01427,5.62694 c -0.43097,-4.5439 -3.02615,-5.40958 -3.02615,-8.4376 0,-0.8656802 0.21549,-1.7313602 0.86381,-3.2453702 l -0.21548,-0.43284 c -2.81066,1.73137 -4.75751,3.8955702 -4.75751,6.0579102 -0.21923,2.59704 1.29478,3.67821 1.51214,5.62506 0.43471,4.5439 0.65207,13.41809 -0.21549,19.47412 0,1.07929 -0.21548,1.94685 -0.43097,2.59517 a 39.840152,39.840152 0 0 0 -3.8937,-2.59517 c -0.21548,-0.21548 -0.64832,-0.43097 -1.29852,-0.64833 v -20.12431 c -0.21548,-0.43284 -3.02989,-3.24538 -3.24537,-3.24538 l -4.10919,3.24538 1.94685,2.1642 c 0,3.8937 0.21549,15.36119 -0.21548,17.96011 0,1.0793 -0.64833,1.94685 -1.29853,2.81066 v 0.21549 c 1.29853,0 2.81441,0.65207 4.76126,1.73136 3.46273,2.16234 3.67822,2.59893 3.8937,2.59893 l 3.67822,-2.81441 c 1.94685,-1.29853 5.40958,-4.32654 5.62506,-4.54203 0.64458,-4.76125 0.64458,-14.28189 0.42535,-18.39295 z"
     fill="#ffffff"
     id="path18-1"
     style="fill:#000000;stroke-width:1.87377" />
</svg>
